<?xml version="1.0" encoding="UTF-8"?>
<svg xmlns="http://www.w3.org/2000/svg" xmlns:xlink="http://www.w3.org/1999/xlink" width="15pt" height="15pt" viewBox="0 0 15 15" version="1.1">
<g id="surface1">
<path style=" stroke:none;fill-rule:nonzero;fill:rgb(0%,0%,0%);fill-opacity:1;" d="M 12.199219 4.1875 C 12.039062 3.234375 11.566406 2.367188 10.84375 1.707031 C 10.042969 0.972656 9 0.566406 7.914062 0.566406 C 7.074219 0.566406 6.257812 0.808594 5.558594 1.261719 C 4.976562 1.636719 4.492188 2.148438 4.148438 2.746094 C 4 2.71875 3.847656 2.703125 3.691406 2.703125 C 2.382812 2.703125 1.3125 3.769531 1.3125 5.082031 C 1.3125 5.25 1.332031 5.414062 1.363281 5.574219 C 0.515625 6.191406 0 7.183594 0 8.242188 C 0 9.097656 0.316406 9.925781 0.898438 10.582031 C 1.492188 11.253906 2.28125 11.652344 3.117188 11.699219 C 3.128906 11.699219 3.132812 11.699219 3.144531 11.699219 L 5.796875 11.699219 C 6.027344 11.699219 6.210938 11.515625 6.210938 11.28125 C 6.210938 11.050781 6.027344 10.867188 5.796875 10.867188 L 3.15625 10.867188 C 1.894531 10.789062 0.832031 9.589844 0.832031 8.238281 C 0.832031 7.367188 1.300781 6.550781 2.058594 6.109375 C 2.234375 6.007812 2.308594 5.796875 2.238281 5.605469 C 2.175781 5.4375 2.148438 5.261719 2.148438 5.074219 C 2.148438 4.222656 2.839844 3.527344 3.691406 3.527344 C 3.875 3.527344 4.054688 3.558594 4.21875 3.621094 C 4.421875 3.695312 4.648438 3.601562 4.742188 3.410156 C 5.316406 2.183594 6.5625 1.394531 7.917969 1.394531 C 9.738281 1.394531 11.238281 2.757812 11.414062 4.566406 C 11.429688 4.753906 11.574219 4.90625 11.757812 4.933594 C 13.128906 5.167969 14.167969 6.4375 14.167969 7.882812 C 14.167969 9.417969 12.960938 10.75 11.472656 10.863281 L 9.199219 10.863281 C 8.96875 10.863281 8.785156 11.046875 8.785156 11.28125 C 8.785156 11.511719 8.96875 11.695312 9.199219 11.695312 L 11.488281 11.695312 C 11.5 11.695312 11.507812 11.695312 11.519531 11.695312 C 12.460938 11.628906 13.339844 11.195312 13.996094 10.476562 C 14.644531 9.757812 15 8.839844 15 7.882812 C 14.996094 6.152344 13.816406 4.613281 12.199219 4.1875 Z M 12.199219 4.1875 "/>
<path style=" stroke:none;fill-rule:nonzero;fill:rgb(0%,0%,0%);fill-opacity:1;" d="M 10 8.636719 C 10.164062 8.472656 10.164062 8.210938 10 8.046875 L 7.792969 5.84375 C 7.71875 5.765625 7.609375 5.71875 7.5 5.71875 C 7.394531 5.71875 7.285156 5.761719 7.207031 5.84375 L 5.003906 8.046875 C 4.839844 8.210938 4.839844 8.472656 5.003906 8.636719 C 5.082031 8.71875 5.191406 8.761719 5.296875 8.761719 C 5.402344 8.761719 5.507812 8.71875 5.589844 8.636719 L 7.085938 7.140625 L 7.085938 14.015625 C 7.085938 14.246094 7.269531 14.433594 7.5 14.433594 C 7.734375 14.433594 7.917969 14.246094 7.917969 14.015625 L 7.917969 7.140625 L 9.414062 8.636719 C 9.574219 8.800781 9.835938 8.800781 10 8.636719 Z M 10 8.636719 "/>
</g>
</svg>
